<svg width="200" height="200" viewBox="0 0 200 200" fill="none" xmlns="http://www.w3.org/2000/svg">
<rect width="200" height="200" fill="#70259B"/>
<path d="M121.929 49.989L117.486 59.0951C116.842 60.415 116.838 61.9395 117.474 63.2629L132.448 94.4292C133.08 95.7435 133.08 97.2565 132.448 98.5708L117.474 129.737C116.838 131.061 116.842 132.585 117.486 133.905L121.929 143.011C122.574 144.334 124.541 144.328 125.178 143.002L146.526 98.5708C147.158 97.2565 147.158 95.7435 146.526 94.4292L125.178 49.9981C124.541 48.6716 122.574 48.6661 121.929 49.989Z" fill="white"/>
<path d="M52.7141 102.684L80.0914 160.699C80.9128 162.439 83.4155 162.432 84.2267 160.687L111.397 102.225C112.201 100.495 112.201 98.5046 111.397 96.7752L84.2267 38.3132C83.4155 36.5679 80.9128 36.5606 80.0914 38.3013L52.7141 96.3164C51.762 98.3341 51.762 100.666 52.7141 102.684Z" fill="white"/>
</svg>
